<svg width="335" height="170" viewBox="0 0 335 170" fill="none" xmlns="http://www.w3.org/2000/svg">
<rect width="335" height="170" rx="12" fill="#FFD15C" fill-opacity="0.44"/>
<mask id="mask0_73_3983" style="mask-type:luminance" maskUnits="userSpaceOnUse" x="0" y="0" width="335" height="170">
<rect width="335" height="170" rx="12" fill="white"/>
</mask>
<g mask="url(#mask0_73_3983)">
<path d="M320.8 7.4C320.8 6.1 319.7 5 318.4 5C317.1 5 316 6.1 316 7.4C316 7.9 316.6 8.2 317.3 8.3V10.6H319.3V8.3C320.2 8.1 320.8 7.8 320.8 7.4Z" fill="#FFD15C"/>
<path d="M272.6 27.1748C273.6 26.3748 273.8 24.8748 272.9 23.8748C272.1 22.8748 270.6 22.6748 269.6 23.5748C269.2 23.8748 269.4 24.4748 269.8 25.1748L268 26.5748L269.3 28.1748L271.1 26.6748C271.6 27.1748 272.2 27.4748 272.6 27.1748Z" fill="#FFD15C"/>
<path fill-rule="evenodd" clip-rule="evenodd" d="M315.194 24.2C315.194 23 316.194 22 317.394 22C318.694 22 319.694 23 319.594 24.2C319.594 25.4 318.594 26.4 317.394 26.4C316.194 26.4 315.194 25.4 315.194 24.2ZM315.994 24.2C315.994 25 316.594 25.6 317.394 25.6C318.194 25.6 318.794 25 318.794 24.2C318.794 23.4 318.194 22.8 317.394 22.8C316.594 22.8 315.994 23.4 315.994 24.2Z" fill="#FF7058"/>
<path fill-rule="evenodd" clip-rule="evenodd" d="M276 5.2C276 4 277 3 278.2 3C279.5 3 280.5 4 280.4 5.2C280.4 6.4 279.4 7.4 278.2 7.4C277 7.4 276 6.4 276 5.2ZM276.8 5.2C276.8 6 277.4 6.6 278.2 6.6C279 6.6 279.6 6 279.6 5.2C279.6 4.4 279 3.8 278.2 3.8C277.4 3.8 276.8 4.4 276.8 5.2Z" fill="#FF7058"/>
<path fill-rule="evenodd" clip-rule="evenodd" d="M308 35.7135C308 34.5135 309 33.5135 310.2 33.5135C311.4 33.5135 312.4 34.5135 312.4 35.7135C312.4 36.9135 311.4 37.9135 310.2 37.9135C309 37.9135 308 36.9135 308 35.7135ZM308.8 35.6135C308.8 36.4135 309.4 37.0135 310.2 37.0135C311 37.0135 311.6 36.4135 311.6 35.6135C311.6 34.8135 311 34.2135 310.2 34.2135C309.4 34.2135 308.8 34.8135 308.8 35.6135Z" fill="#FF7058"/>
<path d="M107.5 204C107.5 204 -62.5 177 167.5 162C397.5 147 326 222.5 300.5 110C275 -2.5 356.5 178.5 330 95C303.5 11.5 491 71 359.5 8C228 -55 327.5 112 192.5 61.5C57.5 11 76 -80 76 -80" stroke="#868686" stroke-linecap="round" stroke-dasharray="5"/>
<path opacity="0.84" d="M28.75 109.797L25.0547 116.859V121H23.7422V116.891L20.1406 109.797H21.6328L24.1406 114.859C24.1719 114.922 24.263 115.151 24.4141 115.547H24.4375C24.4896 115.37 24.5885 115.141 24.7344 114.859L27.3594 109.797H28.75ZM31.8812 121.188C30.699 121.188 29.7536 120.815 29.0453 120.07C28.3422 119.32 27.9906 118.328 27.9906 117.094C27.9906 115.75 28.3578 114.701 29.0922 113.945C29.8266 113.19 30.8187 112.812 32.0687 112.812C33.2615 112.812 34.1911 113.18 34.8578 113.914C35.5297 114.648 35.8656 115.667 35.8656 116.969C35.8656 118.245 35.5036 119.268 34.7797 120.039C34.0609 120.805 33.0948 121.188 31.8812 121.188ZM31.975 113.891C31.1521 113.891 30.501 114.172 30.0219 114.734C29.5427 115.292 29.3031 116.062 29.3031 117.047C29.3031 117.995 29.5453 118.742 30.0297 119.289C30.5141 119.836 31.1625 120.109 31.975 120.109C32.8031 120.109 33.4385 119.841 33.8812 119.305C34.3292 118.768 34.5531 118.005 34.5531 117.016C34.5531 116.016 34.3292 115.245 33.8812 114.703C33.4385 114.161 32.8031 113.891 31.975 113.891ZM43.9813 121H42.7V119.734H42.6688C42.1375 120.703 41.3146 121.188 40.2 121.188C38.2938 121.188 37.3406 120.052 37.3406 117.781V113H38.6141V117.578C38.6141 119.266 39.2599 120.109 40.5516 120.109C41.1766 120.109 41.6896 119.88 42.0906 119.422C42.4969 118.958 42.7 118.354 42.7 117.609V113H43.9813V121ZM47.3469 109.609L46.2531 113.094H45.3312L46.1984 109.609H47.3469ZM55.3297 113L52.1422 121H50.8844L47.8531 113H49.2594L51.2906 118.812C51.4417 119.24 51.5354 119.612 51.5719 119.93H51.6031C51.6552 119.529 51.7385 119.167 51.8531 118.844L53.9781 113H55.3297ZM62.7422 117.32H57.0938C57.1146 118.211 57.3542 118.898 57.8125 119.383C58.2708 119.867 58.901 120.109 59.7031 120.109C60.6042 120.109 61.4323 119.812 62.1875 119.219V120.422C61.4844 120.932 60.5547 121.188 59.3984 121.188C58.2682 121.188 57.3802 120.826 56.7344 120.102C56.0885 119.372 55.7656 118.349 55.7656 117.031C55.7656 115.786 56.1172 114.773 56.8203 113.992C57.5286 113.206 58.4062 112.812 59.4531 112.812C60.5 112.812 61.3099 113.151 61.8828 113.828C62.4557 114.505 62.7422 115.445 62.7422 116.648V117.32ZM61.4297 116.234C61.4245 115.495 61.2448 114.919 60.8906 114.508C60.5417 114.096 60.0547 113.891 59.4297 113.891C58.8255 113.891 58.3125 114.107 57.8906 114.539C57.4688 114.971 57.2083 115.536 57.1094 116.234H61.4297ZM71.9891 120.922C71.687 121.089 71.2885 121.172 70.7938 121.172C69.3927 121.172 68.6922 120.391 68.6922 118.828V114.094H67.3172V113H68.6922V111.047L69.9734 110.633V113H71.9891V114.094H69.9734V118.602C69.9734 119.138 70.0646 119.521 70.2469 119.75C70.4292 119.979 70.7313 120.094 71.1531 120.094C71.476 120.094 71.7547 120.005 71.9891 119.828V120.922ZM76.6437 121.188C75.4615 121.188 74.5161 120.815 73.8078 120.07C73.1047 119.32 72.7531 118.328 72.7531 117.094C72.7531 115.75 73.1203 114.701 73.8547 113.945C74.5891 113.19 75.5812 112.812 76.8312 112.812C78.024 112.812 78.9536 113.18 79.6203 113.914C80.2922 114.648 80.6281 115.667 80.6281 116.969C80.6281 118.245 80.2661 119.268 79.5422 120.039C78.8234 120.805 77.8573 121.188 76.6437 121.188ZM76.7375 113.891C75.9146 113.891 75.2635 114.172 74.7844 114.734C74.3052 115.292 74.0656 116.062 74.0656 117.047C74.0656 117.995 74.3078 118.742 74.7922 119.289C75.2766 119.836 75.925 120.109 76.7375 120.109C77.5656 120.109 78.201 119.841 78.6437 119.305C79.0917 118.768 79.3156 118.005 79.3156 117.016C79.3156 116.016 79.0917 115.245 78.6437 114.703C78.201 114.161 77.5656 113.891 76.7375 113.891ZM89.6094 121.188C88.4271 121.188 87.4818 120.815 86.7734 120.07C86.0703 119.32 85.7188 118.328 85.7188 117.094C85.7188 115.75 86.0859 114.701 86.8203 113.945C87.5547 113.19 88.5469 112.812 89.7969 112.812C90.9896 112.812 91.9193 113.18 92.5859 113.914C93.2578 114.648 93.5938 115.667 93.5938 116.969C93.5938 118.245 93.2318 119.268 92.5078 120.039C91.7891 120.805 90.8229 121.188 89.6094 121.188ZM89.7031 113.891C88.8802 113.891 88.2292 114.172 87.75 114.734C87.2708 115.292 87.0312 116.062 87.0312 117.047C87.0312 117.995 87.2734 118.742 87.7578 119.289C88.2422 119.836 88.8906 120.109 89.7031 120.109C90.5312 120.109 91.1667 119.841 91.6094 119.305C92.0573 118.768 92.2812 118.005 92.2812 117.016C92.2812 116.016 92.0573 115.245 91.6094 114.703C91.1667 114.161 90.5312 113.891 89.7031 113.891ZM99.4125 114.297C99.1885 114.125 98.8656 114.039 98.4437 114.039C97.8969 114.039 97.4385 114.297 97.0687 114.812C96.7042 115.328 96.5219 116.031 96.5219 116.922V121H95.2406V113H96.5219V114.648H96.5531C96.7354 114.086 97.0141 113.648 97.3891 113.336C97.7641 113.018 98.1833 112.859 98.6469 112.859C98.9802 112.859 99.2354 112.896 99.4125 112.969V114.297ZM107.231 121H105.95V119.641H105.919C105.325 120.672 104.408 121.188 103.169 121.188C102.164 121.188 101.359 120.831 100.755 120.117C100.156 119.398 99.8562 118.422 99.8562 117.188C99.8562 115.865 100.19 114.805 100.856 114.008C101.523 113.211 102.411 112.812 103.52 112.812C104.619 112.812 105.419 113.245 105.919 114.109H105.95V109.156H107.231V121ZM105.95 117.383V116.203C105.95 115.557 105.736 115.01 105.309 114.562C104.882 114.115 104.341 113.891 103.684 113.891C102.903 113.891 102.289 114.177 101.841 114.75C101.393 115.323 101.169 116.115 101.169 117.125C101.169 118.047 101.382 118.776 101.809 119.312C102.242 119.844 102.82 120.109 103.544 120.109C104.257 120.109 104.835 119.852 105.278 119.336C105.726 118.82 105.95 118.169 105.95 117.383ZM115.855 117.32H110.206C110.227 118.211 110.467 118.898 110.925 119.383C111.383 119.867 112.014 120.109 112.816 120.109C113.717 120.109 114.545 119.812 115.3 119.219V120.422C114.597 120.932 113.667 121.188 112.511 121.188C111.381 121.188 110.493 120.826 109.847 120.102C109.201 119.372 108.878 118.349 108.878 117.031C108.878 115.786 109.23 114.773 109.933 113.992C110.641 113.206 111.519 112.812 112.566 112.812C113.613 112.812 114.422 113.151 114.995 113.828C115.568 114.505 115.855 115.445 115.855 116.648V117.32ZM114.542 116.234C114.537 115.495 114.357 114.919 114.003 114.508C113.654 114.096 113.167 113.891 112.542 113.891C111.938 113.891 111.425 114.107 111.003 114.539C110.581 114.971 110.321 115.536 110.222 116.234H114.542ZM121.572 114.297C121.348 114.125 121.025 114.039 120.603 114.039C120.056 114.039 119.598 114.297 119.228 114.812C118.864 115.328 118.681 116.031 118.681 116.922V121H117.4V113H118.681V114.648H118.713C118.895 114.086 119.173 113.648 119.548 113.336C119.923 113.018 120.343 112.859 120.806 112.859C121.14 112.859 121.395 112.896 121.572 112.969V114.297ZM132.28 121H130.998V119.75H130.967C130.41 120.708 129.59 121.188 128.506 121.188C127.709 121.188 127.084 120.977 126.631 120.555C126.183 120.133 125.959 119.573 125.959 118.875C125.959 117.38 126.84 116.51 128.6 116.266L130.998 115.93C130.998 114.57 130.449 113.891 129.35 113.891C128.386 113.891 127.517 114.219 126.741 114.875V113.562C127.527 113.062 128.433 112.812 129.459 112.812C131.34 112.812 132.28 113.807 132.28 115.797V121ZM130.998 116.953L129.069 117.219C128.475 117.302 128.027 117.451 127.725 117.664C127.423 117.872 127.272 118.245 127.272 118.781C127.272 119.172 127.41 119.492 127.686 119.742C127.967 119.987 128.34 120.109 128.803 120.109C129.439 120.109 129.962 119.888 130.373 119.445C130.79 118.997 130.998 118.432 130.998 117.75V116.953ZM138.005 120.922C137.703 121.089 137.304 121.172 136.809 121.172C135.408 121.172 134.708 120.391 134.708 118.828V114.094H133.333V113H134.708V111.047L135.989 110.633V113H138.005V114.094H135.989V118.602C135.989 119.138 136.08 119.521 136.262 119.75C136.445 119.979 136.747 120.094 137.169 120.094C137.492 120.094 137.77 120.005 138.005 119.828V120.922ZM144.588 121H143.306V109.156H144.588V121ZM153.211 117.32H147.562C147.583 118.211 147.823 118.898 148.281 119.383C148.74 119.867 149.37 120.109 150.172 120.109C151.073 120.109 151.901 119.812 152.656 119.219V120.422C151.953 120.932 151.023 121.188 149.867 121.188C148.737 121.188 147.849 120.826 147.203 120.102C146.557 119.372 146.234 118.349 146.234 117.031C146.234 115.786 146.586 114.773 147.289 113.992C147.997 113.206 148.875 112.812 149.922 112.812C150.969 112.812 151.779 113.151 152.352 113.828C152.924 114.505 153.211 115.445 153.211 116.648V117.32ZM151.898 116.234C151.893 115.495 151.714 114.919 151.359 114.508C151.01 114.096 150.523 113.891 149.898 113.891C149.294 113.891 148.781 114.107 148.359 114.539C147.938 114.971 147.677 115.536 147.578 116.234H151.898ZM160.483 121H159.202V119.75H159.17C158.613 120.708 157.793 121.188 156.709 121.188C155.913 121.188 155.288 120.977 154.834 120.555C154.386 120.133 154.163 119.573 154.163 118.875C154.163 117.38 155.043 116.51 156.803 116.266L159.202 115.93C159.202 114.57 158.652 113.891 157.553 113.891C156.59 113.891 155.72 114.219 154.944 114.875V113.562C155.73 113.062 156.636 112.812 157.663 112.812C159.543 112.812 160.483 113.807 160.483 115.797V121ZM159.202 116.953L157.272 117.219C156.678 117.302 156.23 117.451 155.928 117.664C155.626 117.872 155.475 118.245 155.475 118.781C155.475 119.172 155.613 119.492 155.889 119.742C156.17 119.987 156.543 120.109 157.006 120.109C157.642 120.109 158.165 119.888 158.577 119.445C158.993 118.997 159.202 118.432 159.202 117.75V116.953ZM162.012 120.711V119.336C162.71 119.852 163.479 120.109 164.317 120.109C165.442 120.109 166.005 119.734 166.005 118.984C166.005 118.771 165.955 118.591 165.856 118.445C165.762 118.294 165.632 118.161 165.466 118.047C165.304 117.932 165.111 117.831 164.887 117.742C164.669 117.648 164.432 117.552 164.177 117.453C163.822 117.312 163.51 117.172 163.239 117.031C162.973 116.885 162.749 116.724 162.567 116.547C162.39 116.365 162.255 116.159 162.161 115.93C162.072 115.701 162.028 115.432 162.028 115.125C162.028 114.75 162.114 114.419 162.286 114.133C162.458 113.841 162.687 113.599 162.973 113.406C163.26 113.208 163.585 113.06 163.95 112.961C164.32 112.862 164.7 112.812 165.091 112.812C165.783 112.812 166.403 112.932 166.95 113.172V114.469C166.361 114.083 165.684 113.891 164.919 113.891C164.679 113.891 164.463 113.919 164.27 113.977C164.078 114.029 163.911 114.104 163.77 114.203C163.635 114.302 163.528 114.422 163.45 114.562C163.377 114.698 163.341 114.849 163.341 115.016C163.341 115.224 163.377 115.398 163.45 115.539C163.528 115.68 163.64 115.805 163.786 115.914C163.932 116.023 164.109 116.122 164.317 116.211C164.526 116.299 164.762 116.396 165.028 116.5C165.382 116.635 165.7 116.776 165.981 116.922C166.262 117.062 166.502 117.224 166.7 117.406C166.898 117.583 167.049 117.789 167.153 118.023C167.262 118.258 167.317 118.536 167.317 118.859C167.317 119.255 167.229 119.599 167.052 119.891C166.88 120.182 166.648 120.424 166.356 120.617C166.065 120.81 165.729 120.953 165.348 121.047C164.968 121.141 164.57 121.188 164.153 121.188C163.33 121.188 162.617 121.029 162.012 120.711ZM172.605 120.922C172.303 121.089 171.904 121.172 171.409 121.172C170.008 121.172 169.308 120.391 169.308 118.828V114.094H167.933V113H169.308V111.047L170.589 110.633V113H172.605V114.094H170.589V118.602C170.589 119.138 170.68 119.521 170.863 119.75C171.045 119.979 171.347 120.094 171.769 120.094C172.092 120.094 172.37 120.005 172.605 119.828V120.922ZM181.422 120.938V122.633H180.609V121C179.5 121 178.599 120.776 177.906 120.328V118.969C178.208 119.234 178.62 119.458 179.141 119.641C179.667 119.818 180.156 119.906 180.609 119.906V115.906C179.464 115.354 178.721 114.846 178.383 114.383C178.044 113.914 177.875 113.362 177.875 112.727C177.875 111.971 178.133 111.32 178.648 110.773C179.164 110.221 179.818 109.891 180.609 109.781V108.375H181.422V109.75C182.443 109.781 183.148 109.927 183.539 110.188V111.516C183.008 111.099 182.302 110.875 181.422 110.844V114.969C182.505 115.484 183.245 115.984 183.641 116.469C184.042 116.948 184.242 117.495 184.242 118.109C184.242 118.849 183.992 119.471 183.492 119.977C182.997 120.477 182.307 120.797 181.422 120.938ZM180.609 114.531V110.891C180.172 110.979 179.826 111.174 179.57 111.477C179.315 111.773 179.188 112.135 179.188 112.562C179.188 113.01 179.292 113.378 179.5 113.664C179.708 113.951 180.078 114.24 180.609 114.531ZM181.422 116.312V119.844C182.427 119.625 182.93 119.083 182.93 118.219C182.93 117.5 182.427 116.865 181.422 116.312ZM190.491 121H189.209V111.32C189.11 111.419 188.965 111.534 188.772 111.664C188.584 111.789 188.371 111.914 188.131 112.039C187.897 112.164 187.647 112.281 187.381 112.391C187.121 112.5 186.866 112.586 186.616 112.648V111.352C186.897 111.273 187.194 111.169 187.506 111.039C187.824 110.904 188.134 110.755 188.436 110.594C188.743 110.427 189.032 110.255 189.303 110.078C189.574 109.896 189.808 109.719 190.006 109.547H190.491V121ZM201.028 115.352C201.028 116.289 200.942 117.12 200.77 117.844C200.604 118.568 200.359 119.18 200.036 119.68C199.718 120.174 199.325 120.552 198.856 120.812C198.393 121.068 197.864 121.195 197.27 121.195C196.708 121.195 196.205 121.073 195.762 120.828C195.325 120.578 194.955 120.216 194.653 119.742C194.351 119.268 194.122 118.688 193.966 118C193.809 117.307 193.731 116.516 193.731 115.625C193.731 114.646 193.812 113.781 193.973 113.031C194.14 112.281 194.382 111.654 194.7 111.148C195.018 110.638 195.411 110.255 195.88 110C196.354 109.74 196.895 109.609 197.505 109.609C199.854 109.609 201.028 111.523 201.028 115.352ZM199.716 115.477C199.716 112.289 198.958 110.695 197.442 110.695C195.843 110.695 195.044 112.318 195.044 115.562C195.044 118.589 195.828 120.102 197.395 120.102C198.942 120.102 199.716 118.56 199.716 115.477ZM210.525 110.281C210.275 110.141 209.991 110.07 209.673 110.07C208.778 110.07 208.33 110.635 208.33 111.766V113H210.205V114.094H208.33V121H207.056V114.094H205.689V113H207.056V111.703C207.056 110.865 207.298 110.203 207.783 109.719C208.267 109.229 208.871 108.984 209.595 108.984C209.986 108.984 210.296 109.031 210.525 109.125V110.281ZM214.531 121.188C213.349 121.188 212.404 120.815 211.695 120.07C210.992 119.32 210.641 118.328 210.641 117.094C210.641 115.75 211.008 114.701 211.742 113.945C212.477 113.19 213.469 112.812 214.719 112.812C215.911 112.812 216.841 113.18 217.508 113.914C218.18 114.648 218.516 115.667 218.516 116.969C218.516 118.245 218.154 119.268 217.43 120.039C216.711 120.805 215.745 121.188 214.531 121.188ZM214.625 113.891C213.802 113.891 213.151 114.172 212.672 114.734C212.193 115.292 211.953 116.062 211.953 117.047C211.953 117.995 212.195 118.742 212.68 119.289C213.164 119.836 213.812 120.109 214.625 120.109C215.453 120.109 216.089 119.841 216.531 119.305C216.979 118.768 217.203 118.005 217.203 117.016C217.203 116.016 216.979 115.245 216.531 114.703C216.089 114.161 215.453 113.891 214.625 113.891ZM224.334 114.297C224.11 114.125 223.788 114.039 223.366 114.039C222.819 114.039 222.36 114.297 221.991 114.812C221.626 115.328 221.444 116.031 221.444 116.922V121H220.163V113H221.444V114.648H221.475C221.657 114.086 221.936 113.648 222.311 113.336C222.686 113.018 223.105 112.859 223.569 112.859C223.902 112.859 224.157 112.896 224.334 112.969V114.297ZM27.7656 145H26.4844V143.734H26.4531C25.9219 144.703 25.099 145.188 23.9844 145.188C22.0781 145.188 21.125 144.052 21.125 141.781V137H22.3984V141.578C22.3984 143.266 23.0443 144.109 24.3359 144.109C24.9609 144.109 25.474 143.88 25.875 143.422C26.2812 142.958 26.4844 142.354 26.4844 141.609V137H27.7656V145ZM29.475 144.711V143.336C30.1729 143.852 30.9411 144.109 31.7797 144.109C32.9047 144.109 33.4672 143.734 33.4672 142.984C33.4672 142.771 33.4177 142.591 33.3188 142.445C33.225 142.294 33.0948 142.161 32.9281 142.047C32.7667 141.932 32.574 141.831 32.35 141.742C32.1313 141.648 31.8943 141.552 31.6391 141.453C31.2849 141.312 30.9724 141.172 30.7016 141.031C30.4359 140.885 30.212 140.724 30.0297 140.547C29.8526 140.365 29.7172 140.159 29.6234 139.93C29.5349 139.701 29.4906 139.432 29.4906 139.125C29.4906 138.75 29.5766 138.419 29.7484 138.133C29.9203 137.841 30.1495 137.599 30.4359 137.406C30.7224 137.208 31.0479 137.06 31.4125 136.961C31.7823 136.862 32.1625 136.812 32.5531 136.812C33.2458 136.812 33.8656 136.932 34.4125 137.172V138.469C33.824 138.083 33.1469 137.891 32.3813 137.891C32.1417 137.891 31.9255 137.919 31.7328 137.977C31.5401 138.029 31.3734 138.104 31.2328 138.203C31.0974 138.302 30.9906 138.422 30.9125 138.562C30.8396 138.698 30.8031 138.849 30.8031 139.016C30.8031 139.224 30.8396 139.398 30.9125 139.539C30.9906 139.68 31.1026 139.805 31.2484 139.914C31.3943 140.023 31.5714 140.122 31.7797 140.211C31.988 140.299 32.225 140.396 32.4906 140.5C32.8448 140.635 33.1625 140.776 33.4438 140.922C33.725 141.062 33.9646 141.224 34.1625 141.406C34.3604 141.583 34.5115 141.789 34.6156 142.023C34.725 142.258 34.7797 142.536 34.7797 142.859C34.7797 143.255 34.6911 143.599 34.5141 143.891C34.3422 144.182 34.1104 144.424 33.8188 144.617C33.5271 144.81 33.1911 144.953 32.8109 145.047C32.4307 145.141 32.0323 145.188 31.6156 145.188C30.7927 145.188 30.0792 145.029 29.475 144.711ZM37.0125 134.969C36.7833 134.969 36.588 134.891 36.4266 134.734C36.2651 134.578 36.1844 134.38 36.1844 134.141C36.1844 133.901 36.2651 133.703 36.4266 133.547C36.588 133.385 36.7833 133.305 37.0125 133.305C37.2469 133.305 37.4448 133.385 37.6062 133.547C37.7729 133.703 37.8562 133.901 37.8562 134.141C37.8562 134.37 37.7729 134.565 37.6062 134.727C37.4448 134.888 37.2469 134.969 37.0125 134.969ZM37.6375 145H36.3562V137H37.6375V145ZM46.4719 145H45.1906V140.438C45.1906 138.74 44.5708 137.891 43.3312 137.891C42.6906 137.891 42.1594 138.133 41.7375 138.617C41.3208 139.096 41.1125 139.703 41.1125 140.438V145H39.8312V137H41.1125V138.328H41.1437C41.7479 137.318 42.6229 136.812 43.7687 136.812C44.6437 136.812 45.313 137.096 45.7766 137.664C46.2401 138.227 46.4719 139.042 46.4719 140.109V145ZM55.3219 144.359C55.3219 147.297 53.9156 148.766 51.1031 148.766C50.1135 148.766 49.249 148.578 48.5094 148.203V146.922C49.4104 147.422 50.2698 147.672 51.0875 147.672C53.0562 147.672 54.0406 146.625 54.0406 144.531V143.656H54.0094C53.4 144.677 52.4833 145.188 51.2594 145.188C50.2646 145.188 49.4625 144.833 48.8531 144.125C48.249 143.411 47.9469 142.456 47.9469 141.258C47.9469 139.898 48.2724 138.818 48.9234 138.016C49.5797 137.214 50.4755 136.812 51.6109 136.812C52.6891 136.812 53.4885 137.245 54.0094 138.109H54.0406V137H55.3219V144.359ZM54.0406 141.383V140.203C54.0406 139.568 53.8245 139.023 53.3922 138.57C52.9651 138.117 52.4312 137.891 51.7906 137.891C50.999 137.891 50.3792 138.18 49.9312 138.758C49.4833 139.331 49.2594 140.135 49.2594 141.172C49.2594 142.062 49.4729 142.776 49.9 143.312C50.3323 143.844 50.9026 144.109 51.6109 144.109C52.3297 144.109 52.913 143.854 53.3609 143.344C53.8141 142.833 54.0406 142.18 54.0406 141.383ZM65.4594 134.281C65.2094 134.141 64.9255 134.07 64.6078 134.07C63.712 134.07 63.2641 134.635 63.2641 135.766V137H65.1391V138.094H63.2641V145H61.9906V138.094H60.6234V137H61.9906V135.703C61.9906 134.865 62.2328 134.203 62.7172 133.719C63.2016 133.229 63.8057 132.984 64.5297 132.984C64.9203 132.984 65.2302 133.031 65.4594 133.125V134.281ZM70.2938 138.297C70.0698 138.125 69.7469 138.039 69.325 138.039C68.7781 138.039 68.3198 138.297 67.95 138.812C67.5854 139.328 67.4031 140.031 67.4031 140.922V145H66.1219V137H67.4031V138.648H67.4344C67.6167 138.086 67.8953 137.648 68.2703 137.336C68.6453 137.018 69.0646 136.859 69.5281 136.859C69.8615 136.859 70.1167 136.896 70.2938 136.969V138.297ZM77.7141 141.32H72.0656C72.0865 142.211 72.326 142.898 72.7844 143.383C73.2427 143.867 73.8729 144.109 74.675 144.109C75.576 144.109 76.4042 143.812 77.1594 143.219V144.422C76.4562 144.932 75.5266 145.188 74.3703 145.188C73.2401 145.188 72.3521 144.826 71.7062 144.102C71.0604 143.372 70.7375 142.349 70.7375 141.031C70.7375 139.786 71.0891 138.773 71.7922 137.992C72.5005 137.206 73.3781 136.812 74.425 136.812C75.4719 136.812 76.2818 137.151 76.8547 137.828C77.4276 138.505 77.7141 139.445 77.7141 140.648V141.32ZM76.4016 140.234C76.3964 139.495 76.2167 138.919 75.8625 138.508C75.5135 138.096 75.0266 137.891 74.4016 137.891C73.7974 137.891 73.2844 138.107 72.8625 138.539C72.4406 138.971 72.1802 139.536 72.0812 140.234H76.4016ZM85.6891 141.32H80.0406C80.0615 142.211 80.301 142.898 80.7594 143.383C81.2177 143.867 81.8479 144.109 82.65 144.109C83.551 144.109 84.3792 143.812 85.1344 143.219V144.422C84.4313 144.932 83.5016 145.188 82.3453 145.188C81.2151 145.188 80.3271 144.826 79.6813 144.102C79.0354 143.372 78.7125 142.349 78.7125 141.031C78.7125 139.786 79.0641 138.773 79.7672 137.992C80.4755 137.206 81.3531 136.812 82.4 136.812C83.4469 136.812 84.2568 137.151 84.8297 137.828C85.4026 138.505 85.6891 139.445 85.6891 140.648V141.32ZM84.3766 140.234C84.3714 139.495 84.1917 138.919 83.8375 138.508C83.4885 138.096 83.0016 137.891 82.3766 137.891C81.7724 137.891 81.2594 138.107 80.8375 138.539C80.4156 138.971 80.1552 139.536 80.0563 140.234H84.3766ZM98.0531 145H96.7719V143.641H96.7406C96.1469 144.672 95.2302 145.188 93.9906 145.188C92.9854 145.188 92.1807 144.831 91.5766 144.117C90.9776 143.398 90.6781 142.422 90.6781 141.188C90.6781 139.865 91.0115 138.805 91.6781 138.008C92.3448 137.211 93.2328 136.812 94.3422 136.812C95.4411 136.812 96.2406 137.245 96.7406 138.109H96.7719V133.156H98.0531V145ZM96.7719 141.383V140.203C96.7719 139.557 96.5583 139.01 96.1312 138.562C95.7042 138.115 95.1625 137.891 94.5062 137.891C93.725 137.891 93.1104 138.177 92.6625 138.75C92.2146 139.323 91.9906 140.115 91.9906 141.125C91.9906 142.047 92.2042 142.776 92.6312 143.312C93.0635 143.844 93.6417 144.109 94.3656 144.109C95.0792 144.109 95.6573 143.852 96.1 143.336C96.5479 142.82 96.7719 142.169 96.7719 141.383ZM106.677 141.32H101.028C101.049 142.211 101.289 142.898 101.747 143.383C102.205 143.867 102.835 144.109 103.637 144.109C104.539 144.109 105.367 143.812 106.122 143.219V144.422C105.419 144.932 104.489 145.188 103.333 145.188C102.203 145.188 101.315 144.826 100.669 144.102C100.023 143.372 99.7 142.349 99.7 141.031C99.7 139.786 100.052 138.773 100.755 137.992C101.463 137.206 102.341 136.812 103.387 136.812C104.434 136.812 105.244 137.151 105.817 137.828C106.39 138.505 106.677 139.445 106.677 140.648V141.32ZM105.364 140.234C105.359 139.495 105.179 138.919 104.825 138.508C104.476 138.096 103.989 137.891 103.364 137.891C102.76 137.891 102.247 138.107 101.825 138.539C101.403 138.971 101.143 139.536 101.044 140.234H105.364ZM109.503 145H108.222V133.156H109.503V145ZM112.353 134.969C112.124 134.969 111.929 134.891 111.767 134.734C111.606 134.578 111.525 134.38 111.525 134.141C111.525 133.901 111.606 133.703 111.767 133.547C111.929 133.385 112.124 133.305 112.353 133.305C112.588 133.305 112.785 133.385 112.947 133.547C113.114 133.703 113.197 133.901 113.197 134.141C113.197 134.37 113.114 134.565 112.947 134.727C112.785 134.888 112.588 134.969 112.353 134.969ZM112.978 145H111.697V137H112.978V145ZM121.461 137L118.273 145H117.016L113.984 137H115.391L117.422 142.812C117.573 143.24 117.667 143.612 117.703 143.93H117.734C117.786 143.529 117.87 143.167 117.984 142.844L120.109 137H121.461ZM128.873 141.32H123.225C123.246 142.211 123.485 142.898 123.944 143.383C124.402 143.867 125.032 144.109 125.834 144.109C126.735 144.109 127.564 143.812 128.319 143.219V144.422C127.616 144.932 126.686 145.188 125.53 145.188C124.399 145.188 123.511 144.826 122.866 144.102C122.22 143.372 121.897 142.349 121.897 141.031C121.897 139.786 122.248 138.773 122.952 137.992C123.66 137.206 124.537 136.812 125.584 136.812C126.631 136.812 127.441 137.151 128.014 137.828C128.587 138.505 128.873 139.445 128.873 140.648V141.32ZM127.561 140.234C127.556 139.495 127.376 138.919 127.022 138.508C126.673 138.096 126.186 137.891 125.561 137.891C124.957 137.891 124.444 138.107 124.022 138.539C123.6 138.971 123.34 139.536 123.241 140.234H127.561ZM134.591 138.297C134.367 138.125 134.044 138.039 133.622 138.039C133.075 138.039 132.617 138.297 132.247 138.812C131.882 139.328 131.7 140.031 131.7 140.922V145H130.419V137H131.7V138.648H131.731C131.914 138.086 132.192 137.648 132.567 137.336C132.942 137.018 133.361 136.859 133.825 136.859C134.158 136.859 134.414 136.896 134.591 136.969V138.297ZM141.948 137L138.269 146.281C137.613 147.938 136.691 148.766 135.503 148.766C135.17 148.766 134.891 148.732 134.667 148.664V147.516C134.943 147.609 135.196 147.656 135.425 147.656C136.071 147.656 136.555 147.271 136.878 146.5L137.519 144.984L134.394 137H135.816L137.98 143.156C138.006 143.234 138.06 143.438 138.144 143.766H138.191C138.217 143.641 138.269 143.443 138.347 143.172L140.62 137H141.948ZM150.875 134.281C150.625 134.141 150.341 134.07 150.023 134.07C149.128 134.07 148.68 134.635 148.68 135.766V137H150.555V138.094H148.68V145H147.406V138.094H146.039V137H147.406V135.703C147.406 134.865 147.648 134.203 148.133 133.719C148.617 133.229 149.221 132.984 149.945 132.984C150.336 132.984 150.646 133.031 150.875 133.125V134.281ZM154.881 145.188C153.699 145.188 152.754 144.815 152.045 144.07C151.342 143.32 150.991 142.328 150.991 141.094C150.991 139.75 151.358 138.701 152.092 137.945C152.827 137.19 153.819 136.812 155.069 136.812C156.261 136.812 157.191 137.18 157.858 137.914C158.53 138.648 158.866 139.667 158.866 140.969C158.866 142.245 158.504 143.268 157.78 144.039C157.061 144.805 156.095 145.188 154.881 145.188ZM154.975 137.891C154.152 137.891 153.501 138.172 153.022 138.734C152.543 139.292 152.303 140.062 152.303 141.047C152.303 141.995 152.545 142.742 153.03 143.289C153.514 143.836 154.163 144.109 154.975 144.109C155.803 144.109 156.439 143.841 156.881 143.305C157.329 142.768 157.553 142.005 157.553 141.016C157.553 140.016 157.329 139.245 156.881 138.703C156.439 138.161 155.803 137.891 154.975 137.891ZM164.684 138.297C164.46 138.125 164.137 138.039 163.716 138.039C163.169 138.039 162.71 138.297 162.341 138.812C161.976 139.328 161.794 140.031 161.794 140.922V145H160.512V137H161.794V138.648H161.825C162.007 138.086 162.286 137.648 162.661 137.336C163.036 137.018 163.455 136.859 163.919 136.859C164.252 136.859 164.507 136.896 164.684 136.969V138.297ZM174.025 145H172.744V135.32C172.645 135.419 172.499 135.534 172.306 135.664C172.119 135.789 171.905 135.914 171.666 136.039C171.431 136.164 171.181 136.281 170.916 136.391C170.655 136.5 170.4 136.586 170.15 136.648V135.352C170.431 135.273 170.728 135.169 171.041 135.039C171.358 134.904 171.668 134.755 171.97 134.594C172.278 134.427 172.567 134.255 172.837 134.078C173.108 133.896 173.343 133.719 173.541 133.547H174.025V145ZM193.241 145H191.959V140.406C191.959 139.521 191.821 138.88 191.545 138.484C191.274 138.089 190.816 137.891 190.17 137.891C189.623 137.891 189.157 138.141 188.772 138.641C188.392 139.141 188.202 139.74 188.202 140.438V145H186.92V140.25C186.92 138.677 186.314 137.891 185.1 137.891C184.538 137.891 184.074 138.128 183.709 138.602C183.345 139.07 183.163 139.682 183.163 140.438V145H181.881V137H183.163V138.266H183.194C183.761 137.297 184.59 136.812 185.678 136.812C186.225 136.812 186.702 136.966 187.108 137.273C187.514 137.576 187.793 137.974 187.944 138.469C188.538 137.365 189.423 136.812 190.6 136.812C192.36 136.812 193.241 137.898 193.241 140.07V145ZM198.606 145.188C197.424 145.188 196.479 144.815 195.77 144.07C195.067 143.32 194.716 142.328 194.716 141.094C194.716 139.75 195.083 138.701 195.817 137.945C196.552 137.19 197.544 136.812 198.794 136.812C199.986 136.812 200.916 137.18 201.583 137.914C202.255 138.648 202.591 139.667 202.591 140.969C202.591 142.245 202.229 143.268 201.505 144.039C200.786 144.805 199.82 145.188 198.606 145.188ZM198.7 137.891C197.877 137.891 197.226 138.172 196.747 138.734C196.268 139.292 196.028 140.062 196.028 141.047C196.028 141.995 196.27 142.742 196.755 143.289C197.239 143.836 197.887 144.109 198.7 144.109C199.528 144.109 200.164 143.841 200.606 143.305C201.054 142.768 201.278 142.005 201.278 141.016C201.278 140.016 201.054 139.245 200.606 138.703C200.164 138.161 199.528 137.891 198.7 137.891ZM210.878 145H209.597V140.438C209.597 138.74 208.977 137.891 207.738 137.891C207.097 137.891 206.566 138.133 206.144 138.617C205.727 139.096 205.519 139.703 205.519 140.438V145H204.238V137H205.519V138.328H205.55C206.154 137.318 207.029 136.812 208.175 136.812C209.05 136.812 209.719 137.096 210.183 137.664C210.646 138.227 210.878 139.042 210.878 140.109V145ZM216.611 144.922C216.309 145.089 215.91 145.172 215.416 145.172C214.015 145.172 213.314 144.391 213.314 142.828V138.094H211.939V137H213.314V135.047L214.595 134.633V137H216.611V138.094H214.595V142.602C214.595 143.138 214.686 143.521 214.869 143.75C215.051 143.979 215.353 144.094 215.775 144.094C216.098 144.094 216.377 144.005 216.611 143.828V144.922ZM224.562 145H223.281V140.391C223.281 138.724 222.661 137.891 221.422 137.891C220.797 137.891 220.271 138.133 219.844 138.617C219.417 139.096 219.203 139.714 219.203 140.469V145H217.922V133.156H219.203V138.328H219.234C219.849 137.318 220.724 136.812 221.859 136.812C223.661 136.812 224.562 137.898 224.562 140.07V145ZM227.03 145.172C226.79 145.172 226.584 145.086 226.413 144.914C226.246 144.742 226.163 144.536 226.163 144.297C226.163 144.057 226.246 143.852 226.413 143.68C226.584 143.503 226.79 143.414 227.03 143.414C227.274 143.414 227.483 143.503 227.655 143.68C227.827 143.852 227.913 144.057 227.913 144.297C227.913 144.536 227.827 144.742 227.655 144.914C227.483 145.086 227.274 145.172 227.03 145.172Z" fill="#010F07"/>
<path d="M33.002 33.1562H25.6738V39.0488H32.4277V41.7969H25.6738V50H22.4199V30.3945H33.002V33.1562ZM43.053 39.0215C42.6702 38.7207 42.1188 38.5703 41.3988 38.5703C40.4599 38.5703 39.6761 38.9941 39.0472 39.8418C38.4183 40.6895 38.1038 41.8424 38.1038 43.3008V50H34.932V36H38.1038V38.8848H38.1585C38.4684 37.9004 38.9424 37.1348 39.5804 36.5879C40.2275 36.0319 40.9476 35.7539 41.7405 35.7539C42.3148 35.7539 42.7523 35.8405 43.053 36.0137V39.0215ZM57.3288 43.8613H47.7858C47.8222 45.1556 48.2187 46.1536 48.9752 46.8555C49.7409 47.5573 50.789 47.9082 52.1198 47.9082C53.6146 47.9082 54.9863 47.4616 56.235 46.5684V49.125C54.959 49.9271 53.2728 50.3281 51.1764 50.3281C49.1165 50.3281 47.4987 49.6947 46.3229 48.4277C45.1562 47.1517 44.5729 45.3607 44.5729 43.0547C44.5729 40.8763 45.2155 39.1035 46.5006 37.7363C47.7949 36.36 49.3991 35.6719 51.3131 35.6719C53.2272 35.6719 54.7083 36.2871 55.7565 37.5176C56.8047 38.748 57.3288 40.457 57.3288 42.6445V43.8613ZM54.2663 41.6191C54.2571 40.4798 53.9883 39.5957 53.4596 38.9668C52.931 38.3288 52.2018 38.0098 51.2721 38.0098C50.3607 38.0098 49.5859 38.3424 48.9479 39.0078C48.319 39.6732 47.9316 40.5436 47.7858 41.6191H54.2663ZM72.3838 43.8613H62.8408C62.8772 45.1556 63.2737 46.1536 64.0302 46.8555C64.7959 47.5573 65.844 47.9082 67.1748 47.9082C68.6696 47.9082 70.0413 47.4616 71.29 46.5684V49.125C70.014 49.9271 68.3278 50.3281 66.2314 50.3281C64.1715 50.3281 62.5537 49.6947 61.3779 48.4277C60.2112 47.1517 59.6279 45.3607 59.6279 43.0547C59.6279 40.8763 60.2705 39.1035 61.5556 37.7363C62.8499 36.36 64.4541 35.6719 66.3681 35.6719C68.2822 35.6719 69.7633 36.2871 70.8115 37.5176C71.8597 38.748 72.3838 40.457 72.3838 42.6445V43.8613ZM69.3213 41.6191C69.3121 40.4798 69.0433 39.5957 68.5146 38.9668C67.986 38.3288 67.2568 38.0098 66.3271 38.0098C65.4157 38.0098 64.6409 38.3424 64.0029 39.0078C63.374 39.6732 62.9866 40.5436 62.8408 41.6191H69.3213ZM83.8316 50V30.3945H89.4918C96.7197 30.3945 100.334 33.5801 100.334 39.9512C100.334 42.9772 99.331 45.4108 97.3258 47.252C95.3206 49.084 92.6318 50 89.2594 50H83.8316ZM87.0719 33.1562V47.252H89.6695C91.9573 47.252 93.7346 46.623 95.0016 45.3652C96.2776 44.1074 96.9156 42.3301 96.9156 40.0332C96.9156 35.4486 94.5413 33.1562 89.7926 33.1562H87.0719ZM115.607 43.8613H106.064C106.101 45.1556 106.497 46.1536 107.254 46.8555C108.019 47.5573 109.068 47.9082 110.398 47.9082C111.893 47.9082 113.265 47.4616 114.514 46.5684V49.125C113.238 49.9271 111.551 50.3281 109.455 50.3281C107.395 50.3281 105.777 49.6947 104.601 48.4277C103.435 47.1517 102.851 45.3607 102.851 43.0547C102.851 40.8763 103.494 39.1035 104.779 37.7363C106.073 36.36 107.678 35.6719 109.592 35.6719C111.506 35.6719 112.987 36.2871 114.035 37.5176C115.083 38.748 115.607 40.457 115.607 42.6445V43.8613ZM112.545 41.6191C112.536 40.4798 112.267 39.5957 111.738 38.9668C111.21 38.3288 110.48 38.0098 109.551 38.0098C108.639 38.0098 107.865 38.3424 107.226 39.0078C106.598 39.6732 106.21 40.5436 106.064 41.6191H112.545ZM121.994 50H118.809V29.2734H121.994V50ZM127.917 33.0605C127.397 33.0605 126.95 32.8919 126.577 32.5547C126.212 32.2174 126.03 31.7891 126.03 31.2695C126.03 30.75 126.212 30.3171 126.577 29.9707C126.95 29.6243 127.397 29.4512 127.917 29.4512C128.454 29.4512 128.91 29.6243 129.284 29.9707C129.657 30.3171 129.844 30.75 129.844 31.2695C129.844 31.7617 129.657 32.1855 129.284 32.541C128.91 32.8874 128.454 33.0605 127.917 33.0605ZM129.489 50H126.317V36H129.489V50ZM145.884 36L140.47 50H137.038L131.884 36H135.329L138.433 45.7891C138.669 46.5091 138.815 47.138 138.87 47.6758H138.911C138.993 47.0013 139.121 46.3906 139.294 45.8438L142.548 36H145.884ZM160.077 43.8613H150.534C150.571 45.1556 150.967 46.1536 151.724 46.8555C152.489 47.5573 153.538 47.9082 154.868 47.9082C156.363 47.9082 157.735 47.4616 158.984 46.5684V49.125C157.708 49.9271 156.021 50.3281 153.925 50.3281C151.865 50.3281 150.247 49.6947 149.071 48.4277C147.905 47.1517 147.321 45.3607 147.321 43.0547C147.321 40.8763 147.964 39.1035 149.249 37.7363C150.543 36.36 152.148 35.6719 154.062 35.6719C155.976 35.6719 157.457 36.2871 158.505 37.5176C159.553 38.748 160.077 40.457 160.077 42.6445V43.8613ZM157.015 41.6191C157.006 40.4798 156.737 39.5957 156.208 38.9668C155.68 38.3288 154.95 38.0098 154.021 38.0098C153.109 38.0098 152.335 38.3424 151.696 39.0078C151.068 39.6732 150.68 40.5436 150.534 41.6191H157.015ZM171.4 39.0215C171.017 38.7207 170.466 38.5703 169.746 38.5703C168.807 38.5703 168.023 38.9941 167.394 39.8418C166.765 40.6895 166.451 41.8424 166.451 43.3008V50H163.279V36H166.451V38.8848H166.505C166.815 37.9004 167.289 37.1348 167.927 36.5879C168.574 36.0319 169.294 35.7539 170.087 35.7539C170.662 35.7539 171.099 35.8405 171.4 36.0137V39.0215ZM185.949 36L179.633 52.2422C178.32 55.1406 176.479 56.5898 174.109 56.5898C173.444 56.5898 172.888 56.5306 172.441 56.4121V53.7734C172.943 53.9375 173.398 54.0195 173.808 54.0195C174.993 54.0195 175.877 53.4362 176.461 52.2695L177.404 49.9727L171.84 36H175.353L178.689 46.1719C178.726 46.2995 178.808 46.6367 178.935 47.1836H179.004C179.049 46.974 179.131 46.6458 179.25 46.1992L182.75 36H185.949ZM204.055 31.8574C203.627 31.6113 203.139 31.4883 202.592 31.4883C201.052 31.4883 200.282 32.3587 200.282 34.0996V36H203.536V38.4883H200.295V50H197.124V38.4883H194.731V36H197.124V33.7305C197.124 32.2539 197.607 31.0918 198.573 30.2441C199.539 29.3874 200.747 28.959 202.196 28.959C202.98 28.959 203.599 29.0456 204.055 29.2188V31.8574ZM212.179 50.3281C210.018 50.3281 208.291 49.6764 206.997 48.373C205.712 47.0605 205.069 45.3242 205.069 43.1641C205.069 40.8125 205.739 38.9759 207.079 37.6543C208.428 36.3327 210.242 35.6719 212.52 35.6719C214.708 35.6719 216.412 36.3145 217.634 37.5996C218.855 38.8848 219.466 40.6667 219.466 42.9453C219.466 45.1784 218.805 46.9694 217.483 48.3184C216.171 49.6582 214.402 50.3281 212.179 50.3281ZM212.329 38.2012C211.089 38.2012 210.11 38.6341 209.389 39.5C208.669 40.3659 208.309 41.5599 208.309 43.082C208.309 44.5495 208.674 45.707 209.403 46.5547C210.132 47.3932 211.108 47.8125 212.329 47.8125C213.578 47.8125 214.535 47.3978 215.2 46.5684C215.874 45.7389 216.212 44.5586 216.212 43.0273C216.212 41.487 215.874 40.2975 215.2 39.459C214.535 38.6204 213.578 38.2012 212.329 38.2012ZM231.007 39.0215C230.624 38.7207 230.073 38.5703 229.353 38.5703C228.414 38.5703 227.63 38.9941 227.001 39.8418C226.372 40.6895 226.058 41.8424 226.058 43.3008V50H222.886V36H226.058V38.8848H226.112C226.422 37.9004 226.896 37.1348 227.534 36.5879C228.181 36.0319 228.901 35.7539 229.694 35.7539C230.269 35.7539 230.706 35.8405 231.007 36.0137V39.0215ZM28.4082 65.957V86H25.2363V69.8398C24.6621 70.25 24.0423 70.6009 23.377 70.8926C22.7207 71.1751 21.9688 71.4258 21.1211 71.6445V68.9375C21.6497 68.7643 22.1602 68.582 22.6523 68.3906C23.1445 68.1992 23.6276 67.985 24.1016 67.748C24.5846 67.5111 25.0677 67.2467 25.5508 66.9551C26.043 66.6634 26.5488 66.3307 27.0684 65.957H28.4082ZM62.8112 86H59.5846V73.3125C59.5846 72.2734 59.6484 71.002 59.776 69.498H59.7213C59.5208 70.3548 59.3431 70.9701 59.1881 71.3438L53.3366 86H51.0944L45.2291 71.4531C45.0651 71.0247 44.8919 70.373 44.7096 69.498H44.6549C44.7278 70.2819 44.7643 71.5625 44.7643 73.3398V86H41.7565V66.3945H46.3366L51.4909 79.4512C51.8828 80.4538 52.138 81.2012 52.2565 81.6934H52.3248C52.6621 80.6634 52.9355 79.8978 53.1452 79.3965L58.3952 66.3945H62.8112V86ZM73.6826 86.3281C71.5224 86.3281 69.7952 85.6764 68.5009 84.373C67.2158 83.0605 66.5732 81.3242 66.5732 79.1641C66.5732 76.8125 67.2431 74.9759 68.583 73.6543C69.9319 72.3327 71.7457 71.6719 74.0244 71.6719C76.2119 71.6719 77.9163 72.3145 79.1377 73.5996C80.359 74.8848 80.9697 76.6667 80.9697 78.9453C80.9697 81.1784 80.3089 82.9694 78.9873 84.3184C77.6748 85.6582 75.9065 86.3281 73.6826 86.3281ZM73.833 74.2012C72.5934 74.2012 71.6136 74.6341 70.8935 75.5C70.1735 76.3659 69.8134 77.5599 69.8134 79.082C69.8134 80.5495 70.178 81.707 70.9072 82.5547C71.6364 83.3932 72.6116 83.8125 73.833 83.8125C75.0817 83.8125 76.0387 83.3978 76.7041 82.5684C77.3785 81.7389 77.7158 80.5586 77.7158 79.0273C77.7158 77.487 77.3785 76.2975 76.7041 75.459C76.0387 74.6204 75.0817 74.2012 73.833 74.2012ZM96.8587 86H93.6868V78.1113C93.6868 75.4954 92.7617 74.1875 90.9114 74.1875C89.9453 74.1875 89.1477 74.5521 88.5188 75.2812C87.8899 76.0013 87.5755 76.9128 87.5755 78.0156V86H84.3899V72H87.5755V74.3242H87.6302C88.6783 72.556 90.1914 71.6719 92.1692 71.6719C93.6914 71.6719 94.8535 72.1686 95.6555 73.1621C96.4576 74.1465 96.8587 75.5729 96.8587 77.4414V86ZM108.304 85.8496C107.685 86.1595 106.869 86.3145 105.857 86.3145C103.141 86.3145 101.783 85.0111 101.783 82.4043V74.4883H99.4449V72H101.783V68.7598L104.955 67.8574V72H108.304V74.4883H104.955V81.4883C104.955 82.3177 105.105 82.9102 105.406 83.2656C105.707 83.6211 106.208 83.7988 106.91 83.7988C107.448 83.7988 107.912 83.6439 108.304 83.334V85.8496ZM123.66 86H120.488V78.3438C120.488 75.5729 119.563 74.1875 117.713 74.1875C116.783 74.1875 115.999 74.5885 115.361 75.3906C114.723 76.1927 114.404 77.2181 114.404 78.4668V86H111.219V65.2734H114.404V74.3242H114.459C115.516 72.556 117.029 71.6719 118.998 71.6719C122.106 71.6719 123.66 73.5723 123.66 77.373V86ZM131.401 66.3945L131.141 80.2305H128.543L128.188 66.3945H131.401ZM129.883 86.2734C129.336 86.2734 128.871 86.1003 128.489 85.7539C128.106 85.3984 127.914 84.9701 127.914 84.4688C127.914 83.9492 128.106 83.5072 128.489 83.1426C128.871 82.778 129.336 82.5957 129.883 82.5957C130.412 82.5957 130.867 82.778 131.25 83.1426C131.642 83.5072 131.838 83.9492 131.838 84.4688C131.838 84.9701 131.642 85.3984 131.25 85.7539C130.867 86.1003 130.412 86.2734 129.883 86.2734Z" fill="#010F07"/>
<path d="M335.057 57.8493C346.479 62.6799 352.023 75.9207 347.34 87.5105C342.583 99.2857 329.212 104.885 317.529 100.164C305.94 95.4819 300.228 82.3891 304.726 70.7244L326.329 79.4527L335.057 57.8493Z" fill="#FF7058"/>
<path d="M326.329 79.4527L333.484 61.7435C342.774 65.7124 347.175 76.4424 343.391 85.8069C339.533 95.3569 328.597 99.9986 319.048 96.1401C309.683 92.3566 305.114 81.7746 308.62 72.2977L326.329 79.4527Z" fill="#FFD15C"/>
<path d="M318.034 88.5045C318.344 87.7364 317.973 86.8621 317.205 86.5518C316.437 86.2414 315.563 86.6125 315.252 87.3806C314.942 88.1488 315.313 89.023 316.081 89.3333C316.849 89.6437 317.724 89.2726 318.034 88.5045Z" fill="#F8B64C"/>
<path d="M311.589 78.0274C310.662 77.6528 309.714 78.1324 309.376 78.9668C309.002 79.894 309.481 80.8427 310.316 81.1799C310.594 81.2922 310.929 80.9963 311.247 80.4774L312.823 81.1143L313.385 79.7235L311.809 79.0867C311.996 78.6231 311.96 78.1773 311.589 78.0274Z" fill="#F2F2F2"/>
<path d="M335.739 91.667C335.407 90.8859 334.48 90.5113 333.699 90.8428C332.918 91.1744 332.543 92.1016 332.875 92.8826C332.985 93.143 333.393 93.2001 333.969 93.1093L334.577 94.5412L335.786 93.9512L335.179 92.5192C335.607 92.2607 335.849 91.9273 335.739 91.667Z" fill="#F2F2F2"/>
<path fill-rule="evenodd" clip-rule="evenodd" d="M333.217 79.7551C332.383 79.4179 331.996 78.5067 332.333 77.6722C332.67 76.8377 333.582 76.4509 334.416 76.7881C335.25 77.1252 335.637 78.0365 335.3 78.8709C334.963 79.7054 334.052 80.0922 333.217 79.7551ZM333.442 79.1988C333.998 79.4235 334.519 79.2025 334.744 78.6462C334.931 78.1826 334.748 77.5692 334.191 77.3444C333.635 77.1196 333.114 77.3407 332.889 77.897C332.665 78.4533 332.886 78.974 333.442 79.1988Z" fill="#FF7058"/>
<path fill-rule="evenodd" clip-rule="evenodd" d="M327.762 94.5919C327.02 94.2922 326.633 93.3809 326.933 92.6392C327.233 91.8974 328.107 91.6034 328.886 91.8103C329.628 92.11 330.014 93.0213 329.715 93.763C329.415 94.5048 328.504 94.8916 327.762 94.5919ZM327.987 94.0356C328.45 94.2229 328.971 94.0018 329.158 93.5382C329.346 93.0747 329.125 92.5539 328.661 92.3666C328.197 92.1793 327.677 92.4004 327.489 92.864C327.302 93.3275 327.523 93.8483 327.987 94.0356Z" fill="#FF7058"/>
<path d="M319.009 59.1306L317.351 55.2253C322.521 53.1077 328.426 52.9053 334.027 55.0602L325.861 75.2728L319.009 59.1306Z" fill="#FF7058"/>
<path d="M325.86 75.2729L319.009 59.1307C323.137 57.4551 327.928 57.3418 332.416 59.0472L325.86 75.2729Z" fill="#FFD15C"/>
<path d="M330.463 59.876C330.169 59.0022 329.187 58.4974 328.313 58.7915C327.439 59.0856 326.935 60.068 327.229 60.9418C327.302 61.2949 327.803 61.3895 328.379 61.2986L328.912 62.916L330.269 62.4936L329.736 60.8762C330.201 60.525 330.574 60.1364 330.463 59.876Z" fill="#F2F2F2"/>
<path fill-rule="evenodd" clip-rule="evenodd" d="M325.508 69.7379C324.674 69.4007 324.287 68.4895 324.624 67.655C324.961 66.8205 325.873 66.4337 326.707 66.7709C327.541 67.108 327.928 68.0193 327.591 68.8537C327.254 69.6882 326.343 70.075 325.508 69.7379ZM325.826 69.219C326.382 69.4438 326.903 69.2227 327.128 68.6664C327.315 68.2028 327.039 67.5519 326.575 67.3646C326.111 67.1773 325.498 67.3609 325.273 67.9172C325.086 68.3808 325.269 68.9942 325.826 69.219Z" fill="#FF7058"/>
<path fill-rule="evenodd" clip-rule="evenodd" d="M323.302 63.4537C322.467 63.1165 322.08 62.2053 322.418 61.3708C322.755 60.5363 323.666 60.1495 324.5 60.4867C325.335 60.8238 325.722 61.7351 325.385 62.5696C325.047 63.404 324.136 63.7908 323.302 63.4537ZM323.619 62.9348C324.083 63.1221 324.696 62.9386 324.921 62.3823C325.146 61.8259 324.832 61.2678 324.368 61.0805C323.812 60.8557 323.291 61.0767 323.067 61.633C322.842 62.1893 323.063 62.7101 323.619 62.9348Z" fill="#FF7058"/>
<path d="M334.81 86.2228C335.203 85.2499 334.733 84.1425 333.76 83.7494C332.788 83.3563 331.68 83.8264 331.287 84.7993C330.894 85.7723 331.364 86.8796 332.337 87.2727C333.31 87.6658 334.417 87.1958 334.81 86.2228Z" fill="#F8B64C"/>
<path d="M339.175 70.0824C339.568 69.1095 339.098 68.0021 338.125 67.609C337.152 67.2159 336.044 67.686 335.651 68.6589C335.258 69.6318 335.728 70.7392 336.701 71.1323C337.674 71.5254 338.781 71.0553 339.175 70.0824Z" fill="#F8B64C"/>
<path d="M316.796 60.0701L323.648 76.2123L303.435 68.0458C305.775 62.5202 310.023 58.4125 315.138 56.1647L316.796 60.0701Z" fill="#FF7058"/>
<path d="M316.796 60.07L323.648 76.2122L307.422 69.6566C309.313 65.2436 312.685 61.9685 316.796 60.07Z" fill="#FFD15C"/>
<path fill-rule="evenodd" clip-rule="evenodd" d="M314.716 65.4852C313.881 65.148 313.494 64.2368 313.831 63.4023C314.169 62.5678 315.08 62.181 315.914 62.5182C316.749 62.8553 317.136 63.7666 316.798 64.6011C316.461 65.4355 315.55 65.8223 314.716 65.4852ZM314.94 64.9289C315.497 65.1536 316.017 64.9326 316.242 64.3763C316.467 63.82 316.246 63.2993 315.69 63.0745C315.226 62.8872 314.613 63.0708 314.388 63.6271C314.163 64.1834 314.384 64.7041 314.94 64.9289Z" fill="#FF7058"/>
<path d="M319.431 71.1653C319.824 70.1923 319.354 69.085 318.381 68.6919C317.408 68.2988 316.301 68.7688 315.908 69.7418C315.515 70.7147 315.985 71.8221 316.958 72.2152C317.931 72.6083 319.038 72.1382 319.431 71.1653Z" fill="#F8B64C"/>
<path d="M311.426 66.4208C311.666 66.6259 311.739 66.979 311.534 67.2197C310.881 68.0345 311.026 69.2792 311.878 69.8392C312.119 70.0443 312.192 70.3974 311.987 70.6381C311.782 70.8788 311.428 70.9518 311.188 70.7467C309.892 69.6838 309.656 67.8631 310.627 66.5295C310.832 66.2888 311.185 66.2157 311.426 66.4208Z" fill="#F8B64C"/>
<path d="M335.082 72.2037C334.969 72.4819 334.616 72.5549 334.338 72.4426C333.486 71.8825 332.297 72.1569 331.699 73.1019C331.587 73.3801 331.234 73.4531 330.955 73.3407C330.677 73.2284 330.604 72.8753 330.717 72.5971C331.594 71.226 333.397 70.768 334.806 71.5528C335.214 71.61 335.287 71.963 335.082 72.2037Z" fill="#F8B64C"/>
<path d="M330.061 79.5585C330.351 78.8416 330.004 78.0256 329.287 77.736C328.57 77.4463 327.755 77.7927 327.465 78.5096C327.175 79.2265 327.522 80.0424 328.238 80.3321C328.955 80.6217 329.771 80.2754 330.061 79.5585Z" fill="#F8B64C"/>
<path d="M324.233 94.7839C323.803 95.581 322.837 95.8376 322.077 95.315C321.28 94.8851 321.024 93.9186 321.546 93.1591C321.658 92.8809 322.16 92.9755 322.661 93.0701L323.408 91.7542L324.538 92.4267L323.754 93.8352C324.18 94.1153 324.438 94.5433 324.233 94.7839Z" fill="#F2F2F2"/>
<path d="M321.677 87.4958C321.565 87.7739 321.768 88.0718 322.084 88.0914C322.993 88.2431 323.565 89.2293 323.414 90.1387C323.301 90.4169 323.504 90.7147 323.82 90.7343C324.098 90.8467 324.396 90.6435 324.416 90.3279C324.792 88.8622 323.869 87.4105 322.403 87.0341C321.995 86.9769 321.697 87.1802 321.677 87.4958Z" fill="#F8B64C"/>
<path d="M318.908 77.5328C319.018 77.7932 318.868 78.164 318.515 78.2371C317.511 78.5864 316.969 79.6616 317.318 80.6656C317.429 80.9259 317.279 81.2968 316.926 81.3699C316.666 81.4804 316.295 81.3305 316.222 80.9775C315.689 79.3601 316.549 77.766 318.073 77.1957C318.519 77.1601 318.797 77.2725 318.908 77.5328Z" fill="#F8B64C"/>
<path d="M325.913 81.5496C326.024 81.81 325.874 82.1808 325.521 82.2539C324.517 82.6032 323.974 83.6784 324.324 84.6824C324.434 84.9427 324.284 85.3136 323.931 85.3866C323.671 85.4972 323.3 85.3473 323.227 84.9942C322.694 83.3768 323.554 81.7828 325.079 81.2125C325.562 81.0841 325.803 81.2892 325.913 81.5496Z" fill="#F8B64C"/>
<path d="M270.8 107.98H266.8C266.4 107.98 266 107.58 266 107.18C266 106.78 266.3 106.38 266.8 106.38H270.8C271.2 106.38 271.6 106.78 271.6 107.18C271.5 107.68 271.2 107.98 270.8 107.98Z" fill="#CD807D"/>
<path d="M278.5 96.0805C278.2 96.0805 278 95.8805 277.8 95.6805L276 92.0805C275.8 91.6805 276 91.2805 276.3 91.0805C276.7 90.8805 277.1 91.0805 277.3 91.3805L279.1 94.9805C279.4 95.2805 279.3 96.0805 278.5 96.0805Z" fill="#CD807D"/>
<path d="M272.8 122.081L270.8 118.581C270.6 118.181 270.7 117.781 271.1 117.581C271.5 117.381 271.9 117.481 272.1 117.881L274.1 121.381C274.3 121.781 274.2 122.181 273.8 122.381C273.5 122.581 273 122.281 272.8 122.081Z" fill="#84DBFF"/>
<path d="M267.4 118.181C268.118 118.181 268.7 117.598 268.7 116.881C268.7 116.163 268.118 115.581 267.4 115.581C266.682 115.581 266.1 116.163 266.1 116.881C266.1 117.598 266.682 118.181 267.4 118.181Z" fill="#FFD15C"/>
<path d="M269.4 99.2805C270.118 99.2805 270.7 98.6985 270.7 97.9805C270.7 97.2625 270.118 96.6805 269.4 96.6805C268.682 96.6805 268.1 97.2625 268.1 97.9805C268.1 98.6985 268.682 99.2805 269.4 99.2805Z" fill="#84DBFF"/>
<path fill-rule="evenodd" clip-rule="evenodd" d="M282.154 154.703C281.185 154.307 280.216 153.911 279.261 153.337L278.92 153.132C269.914 147.721 266.973 135.925 272.384 126.92C277.836 117.846 289.523 114.932 298.596 120.384L298.937 120.589C299.893 121.163 300.738 121.764 301.502 122.502C308.214 128.485 309.928 138.614 305.132 146.596C300.336 154.578 290.587 157.821 282.154 154.703ZM280.646 143.305C281.328 144.179 282.16 144.957 283.115 145.531L283.388 145.695C288.3 148.647 294.744 147.04 297.695 142.128C300.647 137.216 299.108 130.813 294.128 127.821L293.855 127.657C292.832 127.042 291.822 126.714 290.73 126.522C286.581 125.7 282.157 127.499 279.821 131.388C277.484 135.277 277.973 140.027 280.646 143.305Z" fill="#F1543F"/>
<path d="M290.73 126.522C291.905 124.721 293.653 123.357 295.838 122.812C297.148 122.486 298.282 121.681 298.937 120.589C299.893 121.163 300.697 121.833 301.502 122.502C300.341 124.126 298.675 125.353 296.6 125.87C295.508 126.143 294.497 126.743 293.828 127.548C292.832 127.042 291.822 126.714 290.73 126.522Z" fill="white"/>
<path d="M279.261 153.337C279.849 152.204 280.095 150.866 279.768 149.556C279.183 147.44 279.566 145.256 280.646 143.305C281.328 144.179 282.092 144.916 283.115 145.531C282.678 146.568 282.595 147.633 282.936 148.766C283.453 150.841 283.151 152.889 282.263 154.676C281.185 154.307 280.216 153.911 279.261 153.337Z" fill="white"/>
<path d="M279.768 149.556C279.251 147.481 279.566 145.256 280.646 143.305C277.973 140.027 277.525 135.208 279.821 131.388C282.157 127.499 286.581 125.7 290.73 126.522C291.905 124.721 293.653 123.357 295.838 122.812C297.148 122.486 298.213 121.64 298.938 120.589C298.801 120.507 298.733 120.466 298.596 120.384C289.523 114.932 277.837 117.846 272.384 126.92C266.932 135.993 269.846 147.68 278.92 153.132C279.056 153.214 279.124 153.255 279.261 153.337C279.849 152.204 280.095 150.867 279.768 149.556Z" fill="#FFD15C"/>
<path d="M284.368 149.627C284.409 149.559 284.45 149.491 284.559 149.463C284.778 149.409 284.914 149.491 284.901 149.668L285.336 151.416C285.391 151.634 285.309 151.771 285.131 151.757C284.913 151.811 284.776 151.729 284.79 151.552L284.355 149.805C284.355 149.805 284.327 149.695 284.368 149.627Z" fill="#84DBFF"/>
<path d="M296.502 150.604C296.612 150.577 296.68 150.618 296.748 150.659C296.884 150.741 296.939 150.959 296.789 151.055L295.75 152.473C295.668 152.61 295.45 152.664 295.355 152.514C295.218 152.432 295.164 152.214 295.314 152.118L296.352 150.699C296.284 150.658 296.393 150.631 296.502 150.604Z" fill="white"/>
<path d="M291.396 153.385C291.423 153.494 291.382 153.563 291.341 153.631C291.259 153.767 291.04 153.822 290.945 153.672L289.526 152.633C289.39 152.551 289.335 152.333 289.485 152.237C289.567 152.101 289.786 152.047 289.881 152.197L291.3 153.235C291.341 153.167 291.368 153.276 291.396 153.385Z" fill="#FFD15C"/>
<path d="M300.303 141.652C300.262 141.72 300.221 141.788 300.248 141.898C300.302 142.116 300.439 142.198 300.589 142.103L302.337 141.667C302.555 141.612 302.637 141.476 302.541 141.326C302.446 141.176 302.351 141.025 302.2 141.121L300.494 141.488C300.385 141.516 300.344 141.584 300.303 141.652Z" fill="#84DBFF"/>
<path d="M299.617 146.811C299.658 146.743 299.699 146.675 299.808 146.648C300.027 146.593 300.163 146.675 300.149 146.852L300.585 148.6C300.639 148.818 300.557 148.955 300.38 148.941C300.162 148.996 300.025 148.914 300.039 148.736L299.603 146.989C299.603 146.989 299.576 146.879 299.617 146.811Z" fill="#FFD15C"/>
<path d="M305.833 138.011C305.943 137.984 306.011 138.025 306.079 138.066C306.215 138.148 306.27 138.366 306.12 138.462L305.081 139.88C304.999 140.017 304.781 140.071 304.686 139.921C304.549 139.839 304.495 139.621 304.645 139.525L305.683 138.106C305.724 138.038 305.833 138.011 305.833 138.011Z" fill="#FFD15C"/>
<path d="M304.854 133.151C304.881 133.26 304.84 133.328 304.799 133.397C304.717 133.533 304.498 133.588 304.403 133.437L302.943 132.467C302.807 132.385 302.752 132.167 302.902 132.071C302.984 131.935 303.203 131.88 303.298 132.031L304.717 133.069C304.826 133.042 304.854 133.151 304.854 133.151Z" fill="white"/>
<path d="M300.707 128.152C300.666 128.221 300.625 128.289 300.652 128.398C300.707 128.617 300.843 128.699 300.993 128.603L302.741 128.167C302.959 128.113 303.041 127.977 302.946 127.826C302.891 127.608 302.755 127.526 302.605 127.621L300.857 128.057C300.857 128.057 300.748 128.084 300.707 128.152Z" fill="#84DBFF"/>
<path d="M299.112 125.244L299.794 125.654L301.147 123.403L300.465 122.993C299.373 122.337 298.514 121.449 297.695 120.493C297.463 120.261 297.232 120.029 296.849 119.892C295.949 119.536 294.966 119.782 294.337 120.518C293.545 121.528 293.858 123.016 294.95 123.672C295.223 123.836 295.537 123.931 295.782 123.986C296.915 124.11 298.089 124.629 299.112 125.244Z" fill="#F1543F"/>
<path d="M297.076 128.478L297.827 128.929L298.81 127.291L298.06 126.84C297.378 126.43 296.818 125.816 296.259 125.201C296.095 125.01 295.864 124.778 295.618 124.723C295.031 124.463 294.267 124.654 293.829 125.227C293.269 126.005 293.473 127.056 294.224 127.507C294.428 127.63 294.606 127.644 294.852 127.698C295.63 127.794 296.394 128.068 297.076 128.478Z" fill="#F1543F"/>
<path d="M282.455 154.048L282.932 154.335L283.588 153.244L283.11 152.957C282.633 152.67 282.237 152.247 281.842 151.823C281.746 151.673 281.542 151.55 281.405 151.468C280.955 151.29 280.477 151.467 280.163 151.836C279.767 152.341 279.889 153.064 280.435 153.392C280.571 153.474 280.708 153.556 280.817 153.529C281.417 153.611 281.977 153.762 282.455 154.048Z" fill="#F1543F"/>
<path d="M282.688 151.496L283.37 151.906L284.313 150.337L283.631 149.927C282.949 149.517 282.39 148.902 281.898 148.329C281.735 148.138 281.503 147.905 281.257 147.851C280.67 147.591 279.906 147.782 279.51 148.286C278.95 149.064 279.195 150.047 279.945 150.498C280.15 150.621 280.327 150.635 280.505 150.648C281.242 150.813 282.006 151.086 282.688 151.496Z" fill="#F1543F"/>
</g>
</svg>
