<svg width="299" height="300" viewBox="0 0 299 300" fill="none" xmlns="http://www.w3.org/2000/svg">
<path fill-rule="evenodd" clip-rule="evenodd" d="M149.5 299.321C232.067 299.321 299 232.387 299 149.821C299 67.2543 232.067 0.320862 149.5 0.320862C66.9334 0.320862 0 67.2543 0 149.821C0 232.387 66.9334 299.321 149.5 299.321Z" fill="#F8B64C"/>
<mask id="mask0_4_141" style="mask-type:luminance" maskUnits="userSpaceOnUse" x="0" y="0" width="299" height="300">
<path fill-rule="evenodd" clip-rule="evenodd" d="M149.5 299.321C232.067 299.321 299 232.387 299 149.821C299 67.2543 232.067 0.320862 149.5 0.320862C66.9334 0.320862 0 67.2543 0 149.821C0 232.387 66.9334 299.321 149.5 299.321Z" fill="white"/>
</mask>
<g mask="url(#mask0_4_141)">
<path fill-rule="evenodd" clip-rule="evenodd" d="M197.866 -33.5975C331.641 39.6127 228.192 87.3514 311.045 160.431C357.736 201.614 288.737 280.775 207.406 279.248C178.435 278.705 148.618 224.524 120.906 215.248C88.3657 204.356 59.0145 232.8 42.2264 194.616C-28.9946 32.6263 113.647 87.732 120.953 15.8755C128.26 -55.9809 179.094 -43.1642 197.866 -33.5975Z" fill="#FBFBFB"/>
<path fill-rule="evenodd" clip-rule="evenodd" d="M271.563 241.991C274.217 241.23 275.752 238.461 274.991 235.806C274.23 233.152 271.461 231.617 268.806 232.378C266.152 233.139 264.617 235.908 265.378 238.563C266.139 241.217 268.908 242.752 271.563 241.991Z" fill="#22A45D"/>
<path fill-rule="evenodd" clip-rule="evenodd" d="M75.5421 194.217C78.1965 193.455 79.7313 190.687 78.9702 188.032C78.209 185.378 75.4401 183.843 72.7857 184.604C70.1312 185.365 68.5964 188.134 69.3576 190.788C70.1187 193.443 72.8876 194.978 75.5421 194.217Z" fill="#22A45D"/>
<path fill-rule="evenodd" clip-rule="evenodd" d="M31.9056 96.4573C34.56 95.6962 36.0949 92.9273 35.3337 90.2728C34.5725 87.6184 31.8037 86.0836 29.1492 86.8447C26.4948 87.6059 24.9599 90.3748 25.7211 93.0292C26.4822 95.6837 29.2511 97.2185 31.9056 96.4573Z" fill="#22A45D"/>
<path fill-rule="evenodd" clip-rule="evenodd" d="M265.285 172.058L273.324 176.515L268.868 184.554L260.828 180.098L265.285 172.058Z" fill="#FFD841"/>
<path fill-rule="evenodd" clip-rule="evenodd" d="M96.9156 208.894L104.955 213.35L100.499 221.39L92.4591 216.934L96.9156 208.894Z" fill="#FFD841"/>
<path fill-rule="evenodd" clip-rule="evenodd" d="M28.7752 54.7027L36.815 59.1593L32.3584 67.1991L24.3186 62.7426L28.7752 54.7027Z" fill="#FFD841"/>
<path fill-rule="evenodd" clip-rule="evenodd" d="M129.159 126.19C128.466 126.59 128.173 127.683 128.573 128.375L133.273 136.516C133.873 137.555 133.407 138.748 132.541 139.248C131.675 139.748 130.309 139.382 129.809 138.516L125.109 130.375C124.436 129.609 123.616 129.39 122.75 129.89L122.577 129.99C121.884 130.39 121.592 131.483 121.992 132.175L126.692 140.316C127.292 141.355 126.826 142.548 125.96 143.048C125.093 143.548 123.727 143.182 123.227 142.316L118.527 134.175C118.127 133.483 117.035 133.19 116.342 133.59C115.649 133.99 115.356 135.083 115.756 135.775L120.556 144.089C122.456 147.38 126.335 149.298 129.979 148.81C132.04 154.78 139.522 174.939 146.526 176.67C147.892 177.036 151.009 175.236 151.375 173.87C153.379 166.939 139.661 150.38 135.522 145.61C137.866 142.871 138.245 138.727 136.345 135.436L131.345 126.775C130.845 125.909 129.852 125.79 129.159 126.19Z" fill="#DCDCDC"/>
<path fill-rule="evenodd" clip-rule="evenodd" d="M133.893 158.79C137.227 166.565 141.881 175.425 146.526 176.67C147.892 177.036 151.009 175.236 151.375 173.87C152.62 169.225 147.273 160.765 142.207 153.99L133.893 158.79V158.79Z" fill="#22A45D"/>
<path fill-rule="evenodd" clip-rule="evenodd" d="M188.7 88.1185C184.37 90.6185 184.506 98.8539 186.906 103.011L187.806 104.57C189.706 107.861 193.485 109.605 197.202 108.844C198.936 113.848 206.699 135.693 214.076 137.67C215.442 138.036 218.559 136.236 218.925 134.87C220.902 127.493 205.864 109.848 202.398 105.844C204.743 103.105 205.295 98.8606 203.395 95.5697L202.495 94.0108C200.095 89.8539 193.031 85.6185 188.7 88.1185Z" fill="#DCDCDC"/>
<path fill-rule="evenodd" clip-rule="evenodd" d="M201.443 119.79C204.777 127.565 209.431 136.425 214.076 137.67C215.442 138.036 218.559 136.236 218.925 134.87C220.17 130.225 214.823 121.765 209.757 114.99L201.443 119.79V119.79Z" fill="#22A45D"/>
<path d="M183.025 156.289C196.418 148.557 201.006 131.433 193.274 118.04C185.542 104.648 168.418 100.06 155.025 107.792C141.633 115.524 137.045 132.648 144.777 146.04C152.509 159.433 169.633 164.021 183.025 156.289Z" fill="#FFD600"/>
<path d="M179.525 150.227C189.57 144.428 193.011 131.585 187.212 121.54C181.413 111.496 168.57 108.055 158.525 113.854C148.481 119.653 145.04 132.496 150.839 142.54C156.638 152.585 169.481 156.026 179.525 150.227Z" fill="white"/>
<path d="M215.7 134.884C216.561 134.387 216.543 132.743 215.659 131.213C214.776 129.682 213.361 128.844 212.5 129.341C211.639 129.838 211.658 131.482 212.542 133.013C213.425 134.543 214.839 135.381 215.7 134.884Z" fill="white"/>
<path d="M148.15 173.884C149.011 173.387 148.993 171.743 148.109 170.213C147.226 168.682 145.811 167.844 144.95 168.341C144.089 168.838 144.108 170.482 144.992 172.013C145.875 173.543 147.289 174.381 148.15 173.884Z" fill="white"/>
</g>
</svg>
