<svg width="300" height="300" viewBox="0 0 300 300" fill="none" xmlns="http://www.w3.org/2000/svg">
<path fill-rule="evenodd" clip-rule="evenodd" d="M150.102 299.44C232.669 299.44 299.602 232.507 299.602 149.94C299.602 67.3739 232.669 0.440491 150.102 0.440491C67.5354 0.440491 0.60199 67.3739 0.60199 149.94C0.60199 232.507 67.5354 299.44 150.102 299.44Z" fill="#F1EFDD"/>
<mask id="mask0_4_339" style="mask-type:luminance" maskUnits="userSpaceOnUse" x="0" y="0" width="300" height="300">
<path fill-rule="evenodd" clip-rule="evenodd" d="M150.102 299.44C232.669 299.44 299.602 232.507 299.602 149.94C299.602 67.3739 232.669 0.440491 150.102 0.440491C67.5354 0.440491 0.60199 67.3739 0.60199 149.94C0.60199 232.507 67.5354 299.44 150.102 299.44Z" fill="white"/>
</mask>
<g mask="url(#mask0_4_339)">
<path d="M258.502 260.64C253.702 265.44 246.702 270.94 240.402 274.64C239.902 274.94 239.402 275.24 238.902 275.54C233.202 278.74 226.602 282.14 224.802 280.34C221.602 277.14 231.102 262.24 239.302 252.34C239.702 251.84 240.002 251.44 240.402 251.04C241.802 249.44 243.102 247.94 244.402 246.64C254.102 236.94 257.602 239.64 261.502 243.54C265.002 247.04 267.602 250.44 260.602 258.34C260.202 258.74 259.802 259.14 259.402 259.64C259.202 260.04 258.802 260.34 258.502 260.64Z" fill="#FF7B65"/>
<path d="M272.102 242.54C270.602 241.64 268.902 241.24 267.302 241.24C268.102 239.84 268.602 238.14 268.602 236.44C266.902 236.44 265.302 236.84 263.902 237.64C263.902 236.04 263.502 234.44 262.602 232.94C259.202 234.84 257.302 238.54 257.602 242.24C257.702 243.44 258.802 246.14 258.902 246.34C259.002 246.44 261.702 247.54 263.002 247.64C266.502 247.84 270.202 246.04 272.102 242.54Z" fill="#22A45D"/>
<path d="M259.502 259.64L253.102 253.24C252.802 252.94 252.802 252.34 253.102 252.04C253.402 251.74 254.002 251.74 254.302 252.04L260.602 258.34C260.302 258.84 259.902 259.24 259.502 259.64Z" fill="#F2F2F2"/>
<path d="M240.402 274.64C239.902 274.94 239.402 275.24 238.902 275.54L234.902 271.54C234.602 271.24 234.602 270.64 234.902 270.34C235.202 270.04 235.802 270.04 236.102 270.34L240.402 274.64Z" fill="#F2F2F2"/>
<path d="M248.702 260.641C248.402 260.941 247.802 260.941 247.502 260.641L239.302 252.441C239.702 251.941 240.002 251.541 240.402 251.141L248.802 259.541C249.102 259.741 249.102 260.241 248.702 260.641Z" fill="#F2F2F2"/>
<path d="M153.402 77.9405V92.0405C183.702 92.0405 208.302 116.64 208.302 146.64H222.402C222.102 108.84 191.202 77.9405 153.402 77.9405Z" fill="#F8B64C"/>
<path d="M215.802 153.24C215.802 191.34 184.902 221.94 147.102 221.94C109.002 221.94 78.402 191.04 78.402 153.24C78.402 115.14 109.302 84.5405 147.102 84.5405V98.6405C116.802 98.6405 92.502 123.24 92.502 153.24C92.502 183.54 117.102 208.14 147.102 208.14C177.402 208.14 202.002 183.54 202.002 153.24H215.802Z" fill="#F8B64C"/>
<path d="M208.002 146.64C208.002 116.34 183.402 92.0405 153.102 92.0405V146.64H208.002Z" fill="#FFD15C"/>
<path d="M201.702 153.241C201.702 183.54 177.102 208.141 146.802 208.141C116.502 208.141 92.202 183.54 92.202 153.241C92.202 122.941 116.802 98.6405 146.802 98.6405V153.241H201.702Z" fill="#FFD15C"/>
<path d="M176.502 188.34C181.97 188.34 186.402 183.908 186.402 178.44C186.402 172.973 181.97 168.54 176.502 168.54C171.034 168.54 166.602 172.973 166.602 178.44C166.602 183.908 171.034 188.34 176.502 188.34Z" fill="#FF7B65"/>
<path d="M176.502 173.64C177.496 173.64 178.302 172.835 178.302 171.84C178.302 170.846 177.496 170.04 176.502 170.04C175.508 170.04 174.702 170.846 174.702 171.84C174.702 172.835 175.508 173.64 176.502 173.64Z" fill="#E76A56"/>
<path d="M176.502 187.14C177.496 187.14 178.302 186.335 178.302 185.34C178.302 184.346 177.496 183.54 176.502 183.54C175.508 183.54 174.702 184.346 174.702 185.34C174.702 186.335 175.508 187.14 176.502 187.14Z" fill="#E76A56"/>
<path d="M182.535 174.931C183.238 174.227 183.238 173.088 182.535 172.385C181.832 171.682 180.692 171.682 179.989 172.385C179.286 173.088 179.287 174.228 179.99 174.931C180.693 175.634 181.832 175.634 182.535 174.931Z" fill="#E76A56"/>
<path d="M172.883 184.521C173.586 183.818 173.586 182.678 172.883 181.975C172.18 181.272 171.041 181.272 170.338 181.975C169.635 182.678 169.635 183.818 170.338 184.521C171.041 185.224 172.18 185.224 172.883 184.521Z" fill="#E76A56"/>
<path d="M183.402 180.24C184.396 180.24 185.202 179.435 185.202 178.44C185.202 177.446 184.396 176.64 183.402 176.64C182.408 176.64 181.602 177.446 181.602 178.44C181.602 179.435 182.408 180.24 183.402 180.24Z" fill="#E76A56"/>
<path d="M169.602 180.24C170.596 180.24 171.402 179.435 171.402 178.44C171.402 177.446 170.596 176.64 169.602 176.64C168.608 176.64 167.802 177.446 167.802 178.44C167.802 179.435 168.608 180.24 169.602 180.24Z" fill="#E76A56"/>
<path d="M182.499 184.541C183.202 183.838 183.202 182.698 182.499 181.995C181.796 181.293 180.656 181.293 179.953 181.995C179.251 182.698 179.251 183.838 179.953 184.541C180.656 185.244 181.796 185.244 182.499 184.541Z" fill="#E76A56"/>
<path d="M172.92 174.902C173.623 174.199 173.623 173.059 172.92 172.356C172.217 171.653 171.078 171.653 170.375 172.356C169.672 173.059 169.671 174.198 170.374 174.901C171.077 175.604 172.217 175.605 172.92 174.902Z" fill="#E76A56"/>
<path d="M113.502 158.34C118.97 158.34 123.402 153.908 123.402 148.44C123.402 142.973 118.97 138.54 113.502 138.54C108.034 138.54 103.602 142.973 103.602 148.44C103.602 153.908 108.034 158.34 113.502 158.34Z" fill="#FF7B65"/>
<path d="M113.502 143.64C114.496 143.64 115.302 142.835 115.302 141.84C115.302 140.846 114.496 140.04 113.502 140.04C112.508 140.04 111.702 140.846 111.702 141.84C111.702 142.835 112.508 143.64 113.502 143.64Z" fill="#E76A56"/>
<path d="M113.502 157.14C114.496 157.14 115.302 156.335 115.302 155.34C115.302 154.346 114.496 153.54 113.502 153.54C112.508 153.54 111.702 154.346 111.702 155.34C111.702 156.335 112.508 157.14 113.502 157.14Z" fill="#E76A56"/>
<path d="M119.535 144.931C120.238 144.227 120.238 143.088 119.535 142.385C118.832 141.682 117.692 141.682 116.989 142.385C116.286 143.088 116.287 144.228 116.99 144.931C117.693 145.634 118.832 145.634 119.535 144.931Z" fill="#E76A56"/>
<path d="M109.883 154.521C110.586 153.818 110.586 152.678 109.883 151.975C109.18 151.272 108.041 151.272 107.338 151.975C106.635 152.678 106.635 153.818 107.338 154.521C108.041 155.224 109.18 155.224 109.883 154.521Z" fill="#E76A56"/>
<path d="M120.402 150.24C121.396 150.24 122.202 149.435 122.202 148.44C122.202 147.446 121.396 146.64 120.402 146.64C119.408 146.64 118.602 147.446 118.602 148.44C118.602 149.435 119.408 150.24 120.402 150.24Z" fill="#E76A56"/>
<path d="M106.602 150.24C107.596 150.24 108.402 149.435 108.402 148.44C108.402 147.446 107.596 146.64 106.602 146.64C105.608 146.64 104.802 147.446 104.802 148.44C104.802 149.435 105.608 150.24 106.602 150.24Z" fill="#E76A56"/>
<path d="M119.499 154.541C120.202 153.838 120.202 152.698 119.499 151.995C118.796 151.293 117.656 151.293 116.953 151.995C116.251 152.698 116.251 153.838 116.953 154.541C117.656 155.244 118.796 155.244 119.499 154.541Z" fill="#E76A56"/>
<path d="M109.92 144.902C110.623 144.199 110.623 143.059 109.92 142.356C109.217 141.653 108.078 141.653 107.375 142.356C106.672 143.059 106.671 144.198 107.374 144.901C108.077 145.604 109.217 145.605 109.92 144.902Z" fill="#E76A56"/>
<path fill-rule="evenodd" clip-rule="evenodd" d="M133.002 114.841C133.302 115.141 133.902 115.441 134.502 115.441C135.102 115.441 136.002 115.141 137.202 114.241C139.002 115.741 140.502 115.741 141.402 114.841C142.302 113.941 142.302 112.441 140.802 110.641C142.302 108.841 142.302 107.341 141.402 106.441C140.502 105.541 139.002 105.541 137.202 107.041C135.402 105.541 133.902 105.541 133.002 106.441C132.102 107.341 132.102 108.841 133.602 110.641C132.102 112.441 132.102 113.941 133.002 114.841ZM133.602 107.341C133.902 107.041 134.202 107.041 134.502 107.041C135.102 107.041 135.702 107.341 136.602 107.941L136.902 108.541L137.202 108.241C138.402 107.041 139.602 106.741 140.202 107.341C140.802 107.641 140.502 108.841 139.302 110.341L139.002 110.641L139.302 110.941C140.502 112.141 140.802 113.341 140.202 113.941C139.902 114.541 138.702 114.241 137.202 113.041L136.902 112.741L136.602 113.041C135.402 114.241 134.202 114.541 133.602 113.941C133.002 113.641 133.302 112.441 134.502 110.941L134.802 110.641L134.502 110.341C133.302 109.141 133.002 107.941 133.602 107.341Z" fill="#FF7B65"/>
<path d="M116.802 124.44C118.293 124.44 119.502 123.232 119.502 121.74C119.502 120.249 118.293 119.04 116.802 119.04C115.311 119.04 114.102 120.249 114.102 121.74C114.102 123.232 115.311 124.44 116.802 124.44Z" fill="#40596B"/>
<path d="M117.702 121.74C118.199 121.74 118.602 121.338 118.602 120.84C118.602 120.343 118.199 119.94 117.702 119.94C117.205 119.94 116.802 120.343 116.802 120.84C116.802 121.338 117.205 121.74 117.702 121.74Z" fill="white"/>
<path d="M134.202 176.34C135.693 176.34 136.902 175.132 136.902 173.64C136.902 172.149 135.693 170.94 134.202 170.94C132.711 170.94 131.502 172.149 131.502 173.64C131.502 175.132 132.711 176.34 134.202 176.34Z" fill="#40596B"/>
<path d="M134.802 173.641C135.299 173.641 135.702 173.238 135.702 172.741C135.702 172.243 135.299 171.841 134.802 171.841C134.305 171.841 133.902 172.243 133.902 172.741C133.902 173.238 134.305 173.641 134.802 173.641Z" fill="white"/>
<path d="M191.802 162.241C193.293 162.241 194.502 161.032 194.502 159.541C194.502 158.049 193.293 156.841 191.802 156.841C190.311 156.841 189.102 158.049 189.102 159.541C189.102 161.032 190.311 162.241 191.802 162.241Z" fill="#40596B"/>
<path d="M192.702 159.24C193.199 159.24 193.602 158.838 193.602 158.34C193.602 157.843 193.199 157.44 192.702 157.44C192.205 157.44 191.802 157.843 191.802 158.34C191.802 158.838 192.205 159.24 192.702 159.24Z" fill="white"/>
<path d="M192.102 119.94C193.593 119.94 194.802 118.732 194.802 117.24C194.802 115.749 193.593 114.54 192.102 114.54C190.611 114.54 189.402 115.749 189.402 117.24C189.402 118.732 190.611 119.94 192.102 119.94Z" fill="#40596B"/>
<path d="M193.002 117.24C193.499 117.24 193.902 116.838 193.902 116.34C193.902 115.843 193.499 115.44 193.002 115.44C192.505 115.44 192.102 115.843 192.102 116.34C192.102 116.838 192.505 117.24 193.002 117.24Z" fill="white"/>
<path d="M161.202 191.34C162.693 191.34 163.902 190.132 163.902 188.64C163.902 187.149 162.693 185.94 161.202 185.94C159.711 185.94 158.502 187.149 158.502 188.64C158.502 190.132 159.711 191.34 161.202 191.34Z" fill="#40596B"/>
<path d="M161.802 188.34C162.299 188.34 162.702 187.938 162.702 187.44C162.702 186.943 162.299 186.54 161.802 186.54C161.305 186.54 160.902 186.943 160.902 187.44C160.902 187.938 161.305 188.34 161.802 188.34Z" fill="white"/>
<path d="M134.202 136.74C136.687 136.74 138.702 134.726 138.702 132.24C138.702 129.755 136.687 127.74 134.202 127.74C131.717 127.74 129.702 129.755 129.702 132.24C129.702 134.726 131.717 136.74 134.202 136.74Z" fill="white"/>
<path d="M150.402 171.54C152.202 170.04 152.502 167.34 151.002 165.24C149.502 163.44 146.802 163.14 144.702 164.64C144.102 165.24 144.402 166.44 145.002 167.64L141.702 170.34L144.102 173.34L147.402 170.64C148.602 171.54 149.802 172.14 150.402 171.54Z" fill="#22A45D"/>
<path fill-rule="evenodd" clip-rule="evenodd" d="M107.802 178.44C107.802 175.14 110.502 172.44 113.802 172.44C117.102 172.44 119.802 175.14 119.802 178.44C119.802 181.74 117.102 184.44 113.802 184.44C110.502 184.44 107.802 181.74 107.802 178.44ZM110.202 178.74C110.202 180.54 111.702 182.34 113.802 182.34C115.902 182.34 117.402 180.54 117.402 178.74C117.402 176.94 115.902 175.14 113.802 175.14C112.002 175.14 110.202 176.64 110.202 178.74Z" fill="#FF7B65"/>
<path d="M174.702 126.841C172.002 124.441 171.402 120.541 173.802 117.841C176.202 115.141 180.102 114.541 182.802 116.941C183.702 117.841 183.402 119.641 182.502 121.441L187.302 125.341L183.702 129.541L178.902 125.641C177.402 126.841 175.602 127.741 174.702 126.841Z" fill="#22A45D"/>
<path fill-rule="evenodd" clip-rule="evenodd" d="M204.102 132.841C204.102 136.141 201.402 138.841 198.102 138.841C194.802 138.841 192.102 136.141 192.102 132.841C192.102 129.541 194.802 126.841 198.102 126.841C201.402 126.841 204.102 129.541 204.102 132.841ZM201.702 132.541C201.702 130.741 200.202 128.941 198.102 128.941C196.002 128.941 194.502 130.441 194.502 132.541C194.502 134.341 196.002 136.141 198.102 136.141C199.902 136.141 201.702 134.641 201.702 132.541Z" fill="#E76A56"/>
<path d="M160.602 142.741C160.602 141.541 161.802 140.641 162.702 140.941C166.602 141.241 169.902 138.241 170.202 134.341C170.202 133.141 171.402 132.241 172.302 132.541C173.502 132.541 174.402 133.741 174.102 134.641C173.802 140.941 168.402 145.441 162.102 145.141C161.202 144.841 160.302 143.941 160.602 142.741Z" fill="#5DBB88"/>
<path d="M135.702 189.841C136.902 189.841 137.802 190.741 137.802 191.641C138.102 195.541 141.402 198.541 145.302 198.241C146.502 198.241 147.402 199.141 147.402 200.041C147.402 201.241 146.502 202.141 145.602 202.141C139.302 202.741 133.902 197.941 133.602 191.941C133.602 191.041 134.502 189.841 135.702 189.841Z" fill="#5DBB88"/>
<path d="M163.902 116.041C167.878 116.041 171.102 112.817 171.102 108.841C171.102 104.864 167.878 101.641 163.902 101.641C159.926 101.641 156.702 104.864 156.702 108.841C156.702 112.817 159.926 116.041 163.902 116.041Z" fill="#F8B64C"/>
</g>
</svg>
